<svg id="swipe_icon" data-name="swipe icon" xmlns="http://www.w3.org/2000/svg" viewBox="0 0 64 90"><title>swipe</title><g id="group"><g id="icon"><path d="M36,57c-3.28-6.08-6.5-5.45-9-4-2.89,1.93-4,3.92-2,9,4.54,11.15,11.51,24.43,19,33H71c9.49-7,17.13-40.46,4-42-1.2,0-3.13.19-4,1a4.89,4.89,0,0,0-5-5c-1.74,0-3,1-4,3a4.79,4.79,0,0,0-5-5,5.81,5.81,0,0,0-5,3V29a6,6,0,0,0-12,0V65Z" transform="translate(-18 -5)"/><path d="M29,5a2.05,2.05,0,0,0-1.44.59l-9,9A1.9,1.9,0,0,0,18,16a1.92,1.92,0,0,0,.56,1.4l9,9a2,2,0,0,0,2.85,0,2.06,2.06,0,0,0,0-2.84L24.81,18H67.19l-5.6,5.59a2,2,0,1,0,2.85,2.81l9-9A1.92,1.92,0,0,0,74,16a1.9,1.9,0,0,0-.56-1.41l-9-9a2.06,2.06,0,0,0-2.85,0,2.08,2.08,0,0,0,0,2.85L67.19,14H24.81l5.6-5.59a2.08,2.08,0,0,0,0-2.85A2,2,0,0,0,29,5Z" transform="translate(-18 -5)"/></g></g></svg>